<?xml version="1.0" encoding="UTF-8" standalone="no"?>
<!-- Created with Inkscape (http://www.inkscape.org/) -->

<svg width="200" height="100" viewBox="0 0 52.916665 26.458334" version="1.1" id="svg5" inkscape:version="1.1 (c68e22c387, 2021-05-23)" sodipodi:docname="logo.svg" xmlns:inkscape="http://www.inkscape.org/namespaces/inkscape" xmlns:sodipodi="http://sodipodi.sourceforge.net/DTD/sodipodi-0.dtd" xmlns="http://www.w3.org/2000/svg" xmlns:svg="http://www.w3.org/2000/svg">
   <sodipodi:namedview id="namedview7" pagecolor="#ffffff" bordercolor="#666666" borderopacity="1.0" inkscape:pageshadow="2" inkscape:pageopacity="0.0" inkscape:pagecheckerboard="0" inkscape:document-units="mm" showgrid="false" units="px" inkscape:zoom="1.3416246" inkscape:cx="242.61631" inkscape:cy="108.45061" inkscape:window-width="1920" inkscape:window-height="991" inkscape:window-x="-9" inkscape:window-y="-9" inkscape:window-maximized="1" inkscape:current-layer="g1027" />
   <defs id="defs2" />
   <g inkscape:label="Layer 1" inkscape:groupmode="layer" id="layer1">
      <g id="g1027" transform="matrix(0.26458333,0,0,0.26458333,-68.617921,109.17114)">

         <g id="g1025" transform="translate(268.34333,-388.96534)" style="fill:#8d9096;fill-opacity:1">
            <path class="st6" d="m 0,15.6 h 9 v 36 H 0 Z m 38.1,-1.1 c -5.3,0 -9.6,3.2 -11.2,6.8 h -0.2 v -5.8 h -8.5 v 36 h 9 V 31.8 c 0,-4.8 2.7,-9.8 8.4,-9.8 5.8,0 6.8,5.3 6.8,9.6 v 20 h 9 V 29.1 c 0,-7.3 -3.9,-14.6 -13.3,-14.6 z m 77.5,20.9 c 0,4.8 -2.7,9.8 -8.4,9.8 -5.8,0 -6.8,-5.3 -6.8,-9.6 v -20 h -9 v 22.5 c 0,7.3 3.9,14.5 13.3,14.5 5.3,0 9.6,-3.2 11.2,-6.8 h 0.2 v 5.8 h 8.5 v -36 h -9 c 0,0 0,19.8 0,19.8 z m 18.2,16.2 h 9 v -36 h -9 z M 56,23.5 h 10.1 v 28.1 h 9 V 23.5 h 10.1 v -8 H 56 Z M 70.6,10.9 c 3,0 5.4,-2.4 5.4,-5.4 0,-3 -2.4,-5.4 -5.4,-5.4 -3,0 -5.4,2.4 -5.4,5.4 0,3 2.3,5.4 5.4,5.4 z m 78.5,4.7 v 8 h 10.1 v 28.1 h 9 V 23.5 h 10.1 v -8 h -29.2 z m 14.6,-4.7 c 3,0 5.4,-2.4 5.4,-5.4 0,-3 -2.4,-5.4 -5.4,-5.4 -3,0 -5.4,2.4 -5.4,5.4 -0.1,2.9 2.4,5.4 5.4,5.4 z" id="path1021" style="fill:#8d9096;fill-opacity:1" />

            <path class="st6" d="m 180.4,48.7 c 0,-0.6 -0.5,-0.9 -1.1,-0.9 h -1 v 3 h 0.5 v -1.2 h 0.4 l 0.7,1.2 h 0.6 l -0.8,-1.3 c 0.4,-0.1 0.7,-0.4 0.7,-0.8 z m -1.6,0.4 v -0.8 h 0.5 c 0.3,0 0.6,0.1 0.6,0.4 0,0.4 -0.4,0.4 -0.7,0.4 0,0 -0.4,0 -0.4,0 z m 0.5,-2.4 c -1.5,0 -2.7,1.2 -2.7,2.7 0,1.5 1.2,2.6 2.7,2.6 1.5,0 2.7,-1.2 2.7,-2.6 0,-1.5 -1.2,-2.7 -2.7,-2.7 z m 0,4.9 c -1.2,0 -2.2,-1 -2.2,-2.2 0,-1.2 1,-2.2 2.2,-2.2 1.2,0 2.2,1 2.2,2.2 0,1.2 -1,2.2 -2.2,2.2 z" id="path1023" style="fill:#8d9096;fill-opacity:1" />

         </g>

      </g>
   </g>
   <style type="text/css" id="style929">
	.st0{fill:#00A6A4;}
	.st1{fill:#FFFFFF;}
	.st2{fill:#2CA01C;}
	.st3{fill:#D52B1E;}
	.st4{fill:#008600;}
	.st5{fill:#FFE01B;}
	.st6{fill:#0077C5;}
</style>
</svg>