<?xml version="1.0" encoding="UTF-8" standalone="no"?>
<!-- Created with Inkscape (http://www.inkscape.org/) -->

<svg width="220" height="50" viewBox="0 0 58.208332 13.229167" version="1.1" id="svg2190" sodipodi:docname="quickbooks.svg" inkscape:version="1.1 (c68e22c387, 2021-05-23)" xmlns:inkscape="http://www.inkscape.org/namespaces/inkscape" xmlns:sodipodi="http://sodipodi.sourceforge.net/DTD/sodipodi-0.dtd" xmlns="http://www.w3.org/2000/svg" xmlns:svg="http://www.w3.org/2000/svg">
    <sodipodi:namedview id="namedview2192" pagecolor="#ffffff" bordercolor="#666666" borderopacity="1.0" inkscape:pageshadow="2" inkscape:pageopacity="0.0" inkscape:pagecheckerboard="0" inkscape:document-units="mm" showgrid="false" units="px" inkscape:zoom="2.56" inkscape:cx="123.82813" inkscape:cy="79.492188" inkscape:window-width="1920" inkscape:window-height="991" inkscape:window-x="-9" inkscape:window-y="-9" inkscape:window-maximized="1" inkscape:current-layer="g204" />
    <defs id="defs2187" />
    <g inkscape:label="Layer 1" inkscape:groupmode="layer" id="layer1">
        <g id="g212" transform="matrix(0.26458333,0,0,0.26458333,-41.205602,131.18038)">
            <g id="g204">
                <g id="g130" transform="translate(-272.01229,-505.69987)">
                    <path d="m 529.8,43.4 c -2.6,0 -3.9,-2.3 -3.9,-4.6 0,-2.3 1.4,-4.5 3.8,-4.5 1.1,0 2.5,0.6 3.1,1.3 l 2.8,-2.7 c -1.3,-1.4 -3.5,-2.2 -5.8,-2.2 -4.8,0 -8.3,3.4 -8.3,8.2 0,4.8 3.4,8.2 8.4,8.2 2.3,0 4.5,-0.7 5.8,-2.1 L 533,42.1 c -0.8,0.7 -2,1.3 -3.2,1.3 z M 488.6,33.1 v 0 c -0.7,-0.7 -2.3,-2.4 -5,-2.4 -4.4,0 -7.7,3.4 -7.7,8.1 0,4.8 3.1,8.2 7.5,8.2 2,0 3.9,-1.1 5,-2.3 h 0.1 v 9.5 h 4.3 V 31.1 h -4.1 z m -4.1,10.3 c -2.6,0 -4.1,-2.3 -4.1,-4.6 0,-2.2 1.4,-4.5 4.1,-4.5 2.5,0 4.1,2.4 4.1,4.6 0,2.2 -1.5,4.5 -4.1,4.5 z m 29.9,3.2 h 4.3 V 31.1 h -4.3 z m -7.8,-7 c 0,1.8 -1.2,3.8 -3.4,3.8 -1.7,0 -2.6,-1.2 -2.6,-3.7 v -8.5 h -4.3 v 9.6 c 0,3.2 1.6,6.3 5.9,6.3 2,0 3.7,-1.6 4.5,-2.8 h 0.1 v 2.3 h 4.1 V 31.1 h -4.3 z m 75.2,-8.9 c -4.9,0 -8.4,3.4 -8.4,8.1 0,4.9 3.6,8.3 8.4,8.3 4.8,0 8.4,-3.4 8.4,-8.3 0,-4.7 -3.5,-8.1 -8.4,-8.1 z m 0,12.7 c -2.8,0 -4.1,-2.4 -4.1,-4.6 0,-2.2 1.3,-4.5 4.1,-4.5 2.8,0 4.1,2.3 4.1,4.5 0,2.2 -1.3,4.6 -4.1,4.6 z m 45.4,-12.3 h -5.5 l -5.5,6.4 H 616 v -15 h -4.3 v 24 H 616 V 39 h 0.1 l 5.7,7.6 h 5.6 l -6.6,-8.5 z m -74.1,0 h -5.5 l -5.5,6.4 H 542 v -15 h -4.3 v 24 H 542 V 39 h 0.1 l 5.7,7.6 h 5.6 l -6.6,-8.5 z m 82.1,6 c -2.2,-0.5 -3,-0.8 -3,-1.7 0,-1.2 1.6,-1.5 2.3,-1.5 1.3,0 2.8,0.8 3.4,1.5 l 2.5,-2.4 c -1.2,-1.5 -3.5,-2.3 -5.9,-2.3 -3.1,0 -6.3,1.6 -6.3,5 0,3 2.3,3.9 4.6,4.4 2.4,0.6 3.3,1 3.3,1.9 0,1.4 -1.6,1.7 -2.2,1.7 -1.4,0 -3,-0.8 -3.9,-1.8 l -2.6,2.6 c 1.4,1.6 3.8,2.5 6.3,2.5 4.2,0 6.7,-2 6.7,-5.3 0,-3.1 -3,-4.1 -5.2,-4.6 z m -71.4,-6.4 c -2,0 -3.4,0.8 -4.8,2.1 v 0 -10.2 h -4.3 v 24 h 4.1 v -2.2 h 0.1 c 1,1.6 2.9,2.6 4.9,2.6 4.4,0 7.8,-3.5 7.8,-8.2 -0.1,-4.7 -3.5,-8.1 -7.8,-8.1 z m -0.9,12.7 c -2.6,0 -4.1,-2.3 -4.1,-4.5 0,-2.2 1.6,-4.6 4.1,-4.6 2.8,0 4.1,2.3 4.1,4.5 0.1,2.3 -1.4,4.6 -4.1,4.6 z m 37.7,-12.7 c -4.9,0 -8.4,3.4 -8.4,8.1 0,4.9 3.6,8.3 8.4,8.3 4.8,0 8.4,-3.4 8.4,-8.3 0,-4.7 -3.6,-8.1 -8.4,-8.1 z m 0,12.7 c -2.8,0 -4.1,-2.4 -4.1,-4.6 0,-2.2 1.3,-4.5 4.1,-4.5 2.8,0 4.1,2.3 4.1,4.5 -0.1,2.2 -1.3,4.6 -4.1,4.6 z" id="path124" />
                    <path class="st2" d="m 453.1,51.6 c 9.9,0 18,-8.1 18,-18 0,-9.9 -8.1,-18 -18,-18 -9.9,0 -18,8.1 -18,18 0,9.9 8.1,18 18,18 z" id="path126" />
                    <path class="st1" d="m 440.1,33.6 c 0,3.9 3.1,7 7,7 h 1 V 38 h -1 c -2.4,0 -4.4,-2 -4.4,-4.4 0,-2.4 2,-4.4 4.4,-4.4 h 2.4 c 0,0 0,13.3 0,13.6 0,1.4 1.2,2.6 2.6,2.6 V 26.6 c 0,0 -2.7,0 -5,0 -3.8,0 -7,3.1 -7,7 z m 19,-7 h -1 v 2.6 h 1 c 2.4,0 4.4,2 4.4,4.4 0,2.4 -2,4.4 -4.4,4.4 h -2.4 c 0,0 0,-13.3 0,-13.6 0,-1.4 -1.2,-2.6 -2.6,-2.6 v 18.8 c 0,0 2.7,0 5,0 3.9,0 7,-3.1 7,-7 0,-3.9 -3.1,-7 -7,-7 z" id="path128" />
                </g>
                <g id="g146" />
                <g id="g202">
                    <g id="g168">
                        <g id="g166">
                            <g id="g164" />
                        </g>
                    </g>
                    <g id="g200">
                        <g id="g186">
                            <g id="g184" />
                        </g>
                        <g id="g194">
                            <g id="g192" />
                        </g>
                    </g>
                </g>
            </g>
            <g id="g210" />
        </g>
    </g>
    <style type="text/css" id="style114">
	.st0{fill:#00A6A4;}
	.st1{fill:#FFFFFF;}
	.st2{fill:#2CA01C;}
	.st3{fill:#D52B1E;}
	.st4{fill:#008600;}
	.st5{fill:#FFE01B;}
	.st6{fill:#0077C5;}
</style>
</svg>