<?xml version="1.0" encoding="UTF-8" standalone="no"?>
<!-- Created with Inkscape (http://www.inkscape.org/) -->

<svg width="180" height="50" viewBox="0 0 47.624999 13.229167" version="1.1" id="svg2190" inkscape:version="1.1 (c68e22c387, 2021-05-23)" sodipodi:docname="turbotax.svg" xmlns:inkscape="http://www.inkscape.org/namespaces/inkscape" xmlns:sodipodi="http://sodipodi.sourceforge.net/DTD/sodipodi-0.dtd" xmlns="http://www.w3.org/2000/svg" xmlns:svg="http://www.w3.org/2000/svg">
    <sodipodi:namedview id="namedview2192" pagecolor="#ffffff" bordercolor="#666666" borderopacity="1.0" inkscape:pageshadow="2" inkscape:pageopacity="0.0" inkscape:pagecheckerboard="0" inkscape:document-units="mm" showgrid="false" units="px" inkscape:zoom="1.8973437" inkscape:cx="90.126002" inkscape:cy="76.68616" inkscape:window-width="1920" inkscape:window-height="991" inkscape:window-x="-9" inkscape:window-y="-9" inkscape:window-maximized="1" inkscape:current-layer="g204" />
    <defs id="defs2187" />
    <g inkscape:label="Layer 1" inkscape:groupmode="layer" id="layer1">
        <g id="g212" transform="matrix(0.26458333,0,0,0.26458333,-41.205602,131.18038)">
            <g id="g204">
                <g id="g122">
                    <path class="st1" d="m 694.4,20.6 c -1.2,1.2 -9.3,9.6 -9.3,16.1 0,4.6 3.7,6.2 9.3,10 5.6,-3.8 9.3,-5.4 9.3,-10 0,-6.6 -8.1,-14.9 -9.3,-16.1 z m -0.2,22.8 c -0.3,-0.2 -0.6,-0.4 -0.9,-0.6 -4.5,-2.9 -5.6,-3.9 -5.6,-6.2 0,-3.6 3.5,-8.6 6.5,-12 z" id="path120" />
                </g>
                <g id="g138" transform="translate(-69.912289,-504.39987)">
                    <path d="m 360,26.8 h -4.2 v 4.3 h -2.6 v 3.4 h 2.6 v 6.8 c 0,2.4 0.6,5.6 5.2,5.6 0.9,0 2,-0.2 2.7,-0.4 l -0.1,-3.3 c -0.4,0.1 -1.1,0.3 -1.9,0.3 -1.2,0 -1.7,-0.9 -1.7,-2.2 v -6.8 h 3.7 V 31.1 H 360 Z m 32.8,11.6 5.6,-7.3 h -5 l -3.2,4.4 -3.1,-4.4 h -5.2 l 5.6,7.3 -6.3,8.2 h 5.1 l 3.8,-5.2 3.8,5.2 h 5.2 z m -96.3,1.2 c 0,1.8 -1.2,3.8 -3.4,3.8 -1.7,0 -2.6,-1.2 -2.6,-3.7 v -8.5 h -4.3 v 9.6 c 0,3.2 1.6,6.3 5.9,6.3 2,0 3.7,-1.6 4.5,-2.8 h 0.1 v 2.3 h 4.1 V 31.1 h -4.3 z m -17,-12.8 h -4.2 v 4.3 h -2.6 v 3.4 h 2.6 v 6.8 c 0,2.4 0.6,5.6 5.2,5.6 0.9,0 2,-0.2 2.7,-0.4 l -0.1,-3.3 c -0.4,0.1 -1.1,0.3 -1.9,0.3 -1.2,0 -1.7,-0.9 -1.7,-2.2 v -6.8 h 3.7 v -3.4 h -3.7 z m 29.1,6.7 v 0 l -0.1,-2.4 h -4.1 v 15.5 h 4.3 v -8.3 c 0,0 0.2,-3.8 3.9,-3.8 0.3,0 0.8,0 1.3,0.2 v -3.9 c -0.3,-0.1 -1,-0.1 -1.2,-0.1 -1.7,0 -3.1,1.4 -4.1,2.8 z m 16.9,-2.8 c -1.9,0 -3.4,0.8 -4.8,2.1 h -0.1 V 22.6 h -4.3 v 24 h 4.1 v -2.2 h 0.1 c 1,1.6 2.9,2.6 4.9,2.6 4.4,0 7.8,-3.5 7.8,-8.2 -0.1,-4.7 -3.4,-8.1 -7.7,-8.1 z m -0.9,12.7 c -2.6,0 -4.1,-2.3 -4.1,-4.5 0,-2.2 1.6,-4.6 4.1,-4.6 2.8,0 4.1,2.3 4.1,4.5 0.1,2.3 -1.4,4.6 -4.1,4.6 z m 18.9,-12.7 c -4.9,0 -8.4,3.4 -8.4,8.1 0,4.9 3.6,8.3 8.4,8.3 4.8,0 8.4,-3.4 8.4,-8.3 0,-4.7 -3.5,-8.1 -8.4,-8.1 z m 0,12.7 c -2.8,0 -4.1,-2.4 -4.1,-4.6 0,-2.2 1.3,-4.5 4.1,-4.5 2.8,0 4.1,2.3 4.1,4.5 -0.1,2.2 -1.3,4.6 -4.1,4.6 z m 29.8,-12.7 c -2.5,0 -5,1 -6.6,2.5 l 2.2,2.4 c 1,-1 2.7,-1.6 4.1,-1.6 1.5,0 3.1,0.8 3.1,2.6 v 0.3 c -4.5,0 -10.2,0.6 -10.2,5.2 0,3.4 3,4.9 5.9,4.9 1.8,0 3.4,-1 4.4,-2.2 h 0.1 v 1.8 h 4 v -9.4 c -0.1,-2.4 -1,-6.5 -7,-6.5 z m 2.8,9.3 c 0,2.3 -1.3,3.7 -3.6,3.7 -0.9,0 -2.4,-0.3 -2.4,-1.6 0,-1.5 1.9,-2.4 5.5,-2.4 h 0.6 V 40 Z" id="path132" />
                    <path class="st3" d="m 250.2,51.6 c 9.9,0 18,-8.1 18,-18 0,-9.9 -8.1,-18 -18,-18 -9.9,0 -18,8.1 -18,18 0,9.9 8.1,18 18,18 z" id="path134" />
                    <path class="st1" d="m 246.2,40.2 c -2.1,-1.5 -4.1,-3.1 -6,-4.8 -0.7,1.5 -1.3,3.1 -1.9,4.7 3,2.6 7.1,5.5 9.9,7.2 3.6,-9.3 9.2,-15.4 14.6,-19.7 -0.7,-1.5 -1.6,-2.8 -2.8,-3.9 -5.6,4.4 -10.4,10 -13.8,16.5 z" id="path136" />
                </g>
                <g id="g146" />
                <g id="g202">
                    <g id="g168">
                        <g id="g166">
                            <g id="g164" />
                        </g>
                    </g>
                    <g id="g200">
                        <g id="g186">
                            <g id="g184" />
                        </g>
                        <g id="g194">
                            <g id="g192" />
                        </g>
                    </g>
                </g>
            </g>
            <g id="g210" />
        </g>
    </g>
    <style type="text/css" id="style114">
	.st0{fill:#00A6A4;}
	.st1{fill:#FFFFFF;}
	.st2{fill:#2CA01C;}
	.st3{fill:#D52B1E;}
	.st4{fill:#008600;}
	.st5{fill:#FFE01B;}
	.st6{fill:#0077C5;}
</style>
</svg>